<svg width="300" height="120" xmlns="http://www.w3.org/2000/svg" xmlns:svg="http://www.w3.org/2000/svg">
<g>
    <title>Batman Logo</title>
        <path d="m130.39104,97.17895c-0.41362,-6.28942 -1.3439,-17.11314 -11.62369,-11.89229c-4.75707,1.56509 -19.03987,5.54667 -12.134,-2.67999c-3.78521,-8.1971 -19.18714,4.00393 -20.24729,-1.69229c8.28411,-7.86254 -3.99305,-16.50318 -12.67023,-10.92968c-5.33939,1.30069 -16.22476,9.53325 -18.35546,6.92224c4.959,-5.55606 16.12916,-16.93117 2.65668,-20.34165c-14.64017,-2.93552 -27.50382,5.976 -40.23462,10.84022c-3.82036,2.63663 -8.68301,2.17706 -3.93086,-2.21202c16.48725,-22.62329 42.36369,-39.65473 71.07513,-48.30959c6.9598,-1.99949 17.67583,-6.42661 17.88582,3.67346c4.30358,9.29564 7.36549,20.91765 18.44805,25.7007c12.76396,6.27362 3.61443,-18.10914 16.83772,-8.89867c5.5652,3.19112 17.47336,-2.89202 19.1058,0.52617c-3.24249,4.10201 -4.76411,11.38421 3.80308,7.64092c14.87723,-5.17408 25.80464,-16.7636 33.13022,-28.95971c7.6522,-1.01653 15.2608,4.10632 22.23809,6.82774c23.1712,11.59885 37.46914,33.51617 43.54192,55.86044c-6.30639,-3.13464 -12.42008,-9.47132 -20.06161,-11.96298c-8.14707,-3.59877 -17.33574,-4.23332 -26.29116,-3.98601c-4.19703,4.42249 -6.67572,9.91253 -3.02762,15.40682c3.1759,10.52423 -10.13172,-3.62208 -14.93646,-4.58315c-8.971,-5.67005 -17.56569,2.89583 -15.59736,10.94371c-2.02863,1.55087 -8.2853,-2.60026 -11.9614,-2.11846c-7.55823,-2.01274 -12.88177,0.88663 -8.32852,7.83614c-6.66705,-0.71926 -16.40611,-9.80719 -22.30235,-1.25046c-2.57048,2.13757 -3.8949,6.39622 -7.01986,7.63839z" fill="lightblue" stroke="blue" stroke-width="1"/>
    </g>                
</svg>
